<?xml version="1.0" encoding="iso-8859-1"?>

<svg height="800px" width="800px" version="1.1" id="Capa_1" xmlns="http://www.w3.org/2000/svg" xmlns:xlink="http://www.w3.org/1999/xlink" 
	 viewBox="0 0 468.687 468.687" xml:space="preserve">
<g>
	<path d="M430.393,13.785H38.294C17.177,13.785,0,30.962,0,52.081v266.099
		c0,21.117,17.177,38.295,38.294,38.295h131.425v51.333h-20.726c-13.007,0-23.547,10.54-23.547,23.547
		c0,13.007,10.54,23.547,23.547,23.547h170.701c13.007,0,23.547-10.539,23.547-23.547c0-13.007-10.54-23.547-23.547-23.547h-20.742
		v-51.333h131.441c21.117,0,38.294-17.178,38.294-38.295V52.081C468.687,30.962,451.51,13.785,430.393,13.785z M437.291,318.179
		c0,3.802-3.096,6.9-6.898,6.9H38.294c-3.8,0-6.897-3.097-6.897-6.9V52.081c0-3.802,3.097-6.899,6.897-6.899h392.099
		c3.802,0,6.898,3.097,6.898,6.899V318.179z" fill="#00FFFF"/>
	<path d="M196.766,170.766l-60 -40l60 -40 M256.766, 90l-40 85 M276.766,170.766l60 -40l-60 -40 M135 220l200 0 M135 250l200 0 M135 280l200 0" fill="none" stroke="#00FFFF" vector-effect="non-scaling-stroke"
/>
</g>
</svg>