<?xml version="1.0" encoding="iso-8859-1"?>
<svg fill="#000000" version="1.1" id="Capa_1" xmlns="http://www.w3.org/2000/svg" xmlns:xlink="http://www.w3.org/1999/xlink" 
	 width="800px" height="800px" viewBox="0 0 46.096 46.095"
	 xml:space="preserve">
<g>
	<g>
		<path d="M40.316,1.279c0.27,0.467,0.455,0.991,0.523,1.546c0.123,1.04-0.17,2.066-0.796,2.903
			c1.131,0.721,1.867,1.985,1.867,3.417v15.471c0,1.993-1.574,3.581-3.567,3.581H7.754c-1.994,0-3.571-1.588-3.571-3.581V9.145
			c0-2.226,1.812-4.04,4.036-4.04h18.292l3.291-4.182H8.219C3.681,0.923,0,4.606,0,9.145v20.722c0,4.539,3.681,8.24,8.219,8.24
			h9.602v4.182H13.21c-1.849,0-3.346,1.456-3.346,3.364h26.404c0-1.909-1.498-3.364-3.348-3.364h-4.555v-4.182h9.544
			c4.54,0,8.187-3.701,8.187-8.24V9.145C46.096,5.451,43.674,2.318,40.316,1.279z M23.065,35.153c-1.372,0-2.485-1.112-2.485-2.485
			c0-1.371,1.113-2.484,2.485-2.484c1.375,0,2.485,1.113,2.485,2.484C25.551,34.041,24.439,35.153,23.065,35.153z" fill="#00FFFF"/>
		<path d="M24.037,21.233L37.645,3.944c0.168-0.215,0.248-0.49,0.215-0.763S37.688,2.66,37.471,2.49l-2.318-1.825
			c-0.188-0.149-0.416-0.222-0.639-0.222c-0.309,0-0.611,0.135-0.816,0.396L20.091,18.127L24.037,21.233z" fill="#00FFFF"/>
		<path d="M18.836,19.72c-0.043,0.057-0.072,0.122-0.087,0.192l-0.896,4.465c-0.032,0.168,0.029,0.34,0.165,0.445
			c0.08,0.064,0.18,0.098,0.279,0.098c0.066,0,0.131-0.015,0.192-0.043l4.128-1.921c0.065-0.03,0.122-0.074,0.165-0.131l0.012-0.014
			l-3.946-3.106L18.836,19.72z" fill="#00FFFF"/>
	</g>
</g>
</svg>